# xmcd CD database file
#
# Track frame offsets:
#	150
#	23174
#	41770
#	60041
#	78382
#	94645
#	118450
#	138883
#	157560
#	178321
#	200684
#
# Disc length: 2939 seconds
#
# Revision: 0
# Processed by: cddbd v1.5.1PL0 Copyright (c) Steve Scherf et al.
# Submitted via: CDex 1.40Release
#
DISCID=880b790b
DTITLE=クレヨン社 - 誰にだって朝陽は昇る
DYEAR=2004
DGENRE=Pop
TTITLE0=心には銀色のナイフを持て
TTITLE1=三月のひこうき雲
TTITLE2=何処か知らない国で
TTITLE3=ユーラシアの風
TTITLE4=Crescent 〜月の舟 貝の舟〜
TTITLE5=夜間飛行
TTITLE6=懐かしい駅で電車を降りて
TTITLE7=誰にだって朝陽は昇る
TTITLE8=HEARTS
TTITLE9=THE CLASS OF 1976 〜再会〜
TTITLE10=痛み・2004
EXTD=YEAR: 2004 ID3G: 13
EXTT0=
EXTT1=
EXTT2=
EXTT3=
EXTT4=
EXTT5=
EXTT6=
EXTT7=
EXTT8=
EXTT9=
EXTT10=
PLAYORDER=
